# xmcd CD database file generated by MAGIX-FreeDB-MP3_deluxe_MX v3.0beta1
#
# Track frame offsets:
#	183
#	12005
#	37878
#	47700
#	62108
#	83493
#	91868
#	100780
#	108643
#	124968
#	137358
#	149718
#	163323
#	175395
#	187623
#	197740
#	208958
#	223765
#	234415
#	256643
#
# Disc length: 3610
#
# Revision: 11
# Processed by: cddbd v1.5.2PL0 Copyright (c) Steve Scherf et al.
# Submitted via: MAGIX-FreeDB-MP3_deluxe_MX v3.0beta1
#
DISCID=150e1814
DTITLE=Loriot - Loriots Klassiker
DYEAR=1984
DGENRE=Comedy
TTITLE0=Die Bundestagsrede
TTITLE1=Herren im Bad
TTITLE2=Fernsehabend
TTITLE3=Die Jodelschule
TTITLE4=Der sprechende Hund
TTITLE5=Garderobe
TTITLE6=Aufbruch
TTITLE7=Geigen und Trompeten
TTITLE8=Marzipankartoffeln
TTITLE9=Advent
TTITLE10=Der Lottogewinner
TTITLE11=Der Astronaut
TTITLE12=Inhaltsangabe
TTITLE13=Der Kunstpfeifer
TTITLE14=Literaturkritik
TTITLE15=Schnittbohnen
TTITLE16=Feierabend
TTITLE17=Das Ei
TTITLE18=Kochrezepte
TTITLE19=Die Vereinssitzung aus Ödipussi
EXTD=
EXTT0=
EXTT1=
EXTT2=
EXTT3=
EXTT4=
EXTT5=
EXTT6=
EXTT7=
EXTT8=
EXTT9=
EXTT10=
EXTT11=
EXTT12=
EXTT13=
EXTT14=
EXTT15=
EXTT16=
EXTT17=
EXTT18=
EXTT19=
PLAYORDER=
